<?xml version="1.0" encoding="utf-8"?>
<!-- Generator: Adobe Illustrator 16.0.0, SVG Export Plug-In . SVG Version: 6.00 Build 0)  -->
<!DOCTYPE svg PUBLIC "-//W3C//DTD SVG 1.1//EN" "http://www.w3.org/Graphics/SVG/1.1/DTD/svg11.dtd">
<svg version="1.1" id="Layer_1" xmlns="http://www.w3.org/2000/svg" xmlns:xlink="http://www.w3.org/1999/xlink" x="0px" y="0px"
	 width="617.492px" height="44.384px" viewBox="31.032 28.018 617.492 44.384"
	 enable-background="new 31.032 28.018 617.492 44.384" xml:space="preserve">
<g enable-background="new    ">
	<path d="M61.499,69.273l-4.718-12.831H38.886l-4.718,12.831h-3.136l15.564-41.255h2.705l15.392,41.255H61.499z M48.84,34.75
		c-0.211-0.575-0.384-1.141-0.518-1.697c-0.134-0.479-0.278-0.959-0.431-1.438h-0.115c-0.326,1.266-0.643,2.292-0.949,3.078
		l-6.934,19.132h15.91L48.84,34.75z"/>
	<path d="M85.003,42.575c-0.882-0.633-1.918-0.949-3.107-0.949c-2.321,0-4.268,1.198-5.84,3.596
		c-1.573,2.398-2.359,5.803-2.359,10.214v13.837h-2.589V39.813h2.589v6.53h0.115c0.671-2.244,1.736-3.989,3.194-5.235
		c1.457-1.247,3.145-1.87,5.063-1.87c1.093,0,2.071,0.172,2.934,0.518V42.575z"/>
	<path d="M102.208,68.871c-1.381,0.652-2.676,0.979-3.884,0.979c-4.354,0-6.53-2.609-6.53-7.826V42.229H86.5v-2.416h5.294V32.16
		c0.421-0.153,0.863-0.307,1.323-0.46c0.46-0.134,0.901-0.277,1.323-0.432v8.545h7.768v2.416H94.44v19.45
		c0,2.033,0.321,3.504,0.964,4.416c0.643,0.91,1.73,1.365,3.265,1.365c1.093,0,2.273-0.354,3.539-1.064V68.871z"/>
	<path d="M109.343,32.391c-0.575,0-1.083-0.211-1.524-0.633c-0.441-0.422-0.662-0.959-0.662-1.611c0-0.633,0.226-1.146,0.676-1.539
		c0.45-0.393,0.954-0.59,1.51-0.59c0.594,0,1.117,0.192,1.568,0.575c0.451,0.384,0.676,0.902,0.676,1.554
		c0,0.614-0.221,1.142-0.662,1.583C110.484,32.171,109.957,32.391,109.343,32.391z M108.048,69.273V39.813h2.647v29.459H108.048z"/>
	<path d="M118.607,67.978v-3.193c0.997,0.863,2.206,1.545,3.625,2.043c1.419,0.5,2.647,0.748,3.683,0.748
		c4.622,0,6.934-1.889,6.934-5.668c0-1.303-0.509-2.416-1.525-3.336c-1.017-0.922-2.666-1.871-4.948-2.849
		c-2.82-1.227-4.8-2.498-5.941-3.812c-1.142-1.313-1.712-2.91-1.712-4.79c0-2.397,0.916-4.335,2.748-5.812
		c1.831-1.477,4.09-2.216,6.775-2.216c2.532,0,4.699,0.519,6.502,1.554v2.992c-2.187-1.419-4.45-2.129-6.79-2.129
		c-1.938,0-3.5,0.504-4.689,1.511c-1.189,1.007-1.784,2.315-1.784,3.927c0,1.4,0.374,2.536,1.122,3.409s2.397,1.875,4.948,3.007
		c3.069,1.381,5.179,2.661,6.33,3.84c1.151,1.18,1.726,2.749,1.726,4.704c0,2.342-0.877,4.273-2.632,5.797
		c-1.755,1.525-4.177,2.289-7.265,2.289C122.875,69.994,120.506,69.322,118.607,67.978z"/>
	<path d="M144.298,32.391c-0.575,0-1.083-0.211-1.524-0.633c-0.441-0.422-0.662-0.959-0.662-1.611c0-0.633,0.226-1.146,0.676-1.539
		c0.45-0.393,0.954-0.59,1.51-0.59c0.594,0,1.117,0.192,1.568,0.575c0.451,0.384,0.676,0.902,0.676,1.554
		c0,0.614-0.221,1.142-0.662,1.583C145.439,32.171,144.912,32.391,144.298,32.391z M143.003,69.273V39.813h2.647v29.459H143.003z"/>
	<path d="M166.739,68.871c-1.381,0.652-2.676,0.979-3.884,0.979c-4.354,0-6.53-2.609-6.53-7.826V42.229h-5.294v-2.416h5.294V32.16
		c0.421-0.153,0.863-0.307,1.323-0.46c0.46-0.134,0.901-0.277,1.323-0.432v8.545h7.768v2.416h-7.768v19.45
		c0,2.033,0.321,3.504,0.964,4.416c0.643,0.91,1.73,1.365,3.265,1.365c1.093,0,2.273-0.354,3.539-1.064V68.871z"/>
	<path d="M173.873,32.391c-0.575,0-1.083-0.211-1.524-0.633c-0.441-0.422-0.662-0.959-0.662-1.611c0-0.633,0.226-1.146,0.676-1.539
		c0.45-0.393,0.954-0.59,1.51-0.59c0.594,0,1.117,0.192,1.568,0.575c0.451,0.384,0.676,0.902,0.676,1.554
		c0,0.614-0.221,1.142-0.662,1.583C175.014,32.171,174.487,32.391,173.873,32.391z M172.579,69.273V39.813h2.647v29.459H172.579z"/>
	<path d="M203.736,67.978c-2.187,1.344-4.795,2.016-7.825,2.016c-4.009,0-7.241-1.377-9.695-4.129
		c-2.456-2.752-3.683-6.354-3.683-10.803c0-4.68,1.381-8.511,4.143-11.494c2.762-2.981,6.31-4.474,10.645-4.474
		c2.244,0,4.42,0.461,6.531,1.381v2.992c-2.11-1.304-4.421-1.956-6.934-1.956c-3.452,0-6.253,1.242-8.401,3.726
		c-2.148,2.484-3.222,5.701-3.222,9.652c0,3.816,0.983,6.886,2.949,9.207c1.965,2.32,4.56,3.48,7.782,3.48
		c2.954,0,5.524-0.785,7.71-2.359V67.978z"/>
	<path d="M248.646,69.273L243.15,57.19c-1.132-2.493-2.263-4.167-3.395-5.021s-2.551-1.28-4.258-1.28h-5.121v18.383h-2.848V28.018
		h11.451c3.644,0,6.506,0.983,8.587,2.949s3.122,4.56,3.122,7.782c0,2.973-0.854,5.457-2.561,7.451
		c-1.707,1.995-4.095,3.279-7.164,3.855v0.114c1.63,0.652,3.222,2.638,4.776,5.956l6.128,13.147H248.646z M230.376,30.636v17.665
		h7.106c3.145,0,5.643-0.825,7.494-2.475s2.776-3.913,2.776-6.79c0-2.627-0.834-4.685-2.503-6.171
		c-1.668-1.486-4.057-2.229-7.164-2.229H230.376z"/>
	<path d="M259.722,54.658c0,4.046,0.935,7.212,2.805,9.494c1.87,2.283,4.435,3.424,7.696,3.424c3.299,0,6.521-1.217,9.667-3.654
		v2.82c-3.049,2.168-6.454,3.252-10.213,3.252c-3.798,0-6.867-1.363-9.207-4.086c-2.34-2.723-3.51-6.568-3.51-11.537
		c0-4.297,1.223-7.917,3.668-10.861c2.445-2.943,5.625-4.416,9.537-4.416c3.663,0,6.473,1.285,8.43,3.855
		c1.956,2.57,2.935,6.08,2.935,10.529v1.18H259.722z M278.767,52.242c-0.115-3.396-0.93-6.032-2.445-7.912s-3.606-2.819-6.271-2.819
		c-2.762,0-5.049,0.926-6.862,2.776s-2.93,4.502-3.352,7.955H278.767z"/>
	<path d="M287.312,67.978v-3.193c0.997,0.863,2.206,1.545,3.625,2.043c1.419,0.5,2.647,0.748,3.683,0.748
		c4.622,0,6.934-1.889,6.934-5.668c0-1.303-0.509-2.416-1.525-3.336c-1.017-0.922-2.666-1.871-4.948-2.849
		c-2.82-1.227-4.8-2.498-5.941-3.812c-1.142-1.313-1.712-2.91-1.712-4.79c0-2.397,0.916-4.335,2.748-5.812
		c1.831-1.477,4.09-2.216,6.775-2.216c2.532,0,4.699,0.519,6.502,1.554v2.992c-2.187-1.419-4.45-2.129-6.79-2.129
		c-1.938,0-3.5,0.504-4.689,1.511c-1.189,1.007-1.784,2.315-1.784,3.927c0,1.4,0.374,2.536,1.122,3.409s2.397,1.875,4.948,3.007
		c3.069,1.381,5.179,2.661,6.33,3.84c1.151,1.18,1.726,2.749,1.726,4.704c0,2.342-0.877,4.273-2.632,5.797
		c-1.755,1.525-4.177,2.289-7.265,2.289C291.58,69.994,289.211,69.322,287.312,67.978z"/>
	<path d="M323.533,69.994c-4.296,0-7.696-1.416-10.199-4.244c-2.503-2.83-3.754-6.506-3.754-11.034
		c0-4.891,1.309-8.717,3.927-11.479c2.618-2.763,6.066-4.144,10.343-4.144c4.201,0,7.519,1.372,9.955,4.114
		c2.436,2.743,3.654,6.541,3.654,11.393c0,4.584-1.242,8.295-3.726,11.133C331.248,68.574,327.849,69.994,323.533,69.994z
		 M323.735,41.511c-3.472,0-6.239,1.17-8.3,3.51c-2.062,2.34-3.093,5.591-3.093,9.753c0,3.855,1.007,6.953,3.021,9.292
		c2.014,2.34,4.766,3.51,8.257,3.51c3.548,0,6.281-1.15,8.199-3.451c1.918-2.303,2.877-5.496,2.877-9.582
		c0-4.2-0.954-7.422-2.862-9.666C329.925,42.633,327.225,41.511,323.735,41.511z"/>
	<path d="M364.213,69.273v-5.352h-0.115c-2.052,4.049-5.217,6.072-9.493,6.072c-6.962,0-10.443-4.383-10.443-13.149V39.813h2.675
		v16.37c0,3.99,0.657,6.886,1.971,8.689c1.314,1.803,3.381,2.703,6.201,2.703c2.742,0,4.962-1.006,6.66-3.02
		c1.697-2.016,2.545-4.699,2.545-8.056V39.813h2.647v29.459H364.213z"/>
	<path d="M390.193,42.575c-0.883-0.633-1.919-0.949-3.107-0.949c-2.321,0-4.268,1.198-5.841,3.596
		c-1.573,2.398-2.358,5.803-2.358,10.214v13.837h-2.59V39.813h2.59v6.53h0.114c0.671-2.244,1.735-3.989,3.194-5.235
		c1.457-1.247,3.145-1.87,5.063-1.87c1.094,0,2.072,0.172,2.936,0.518V42.575z"/>
	<path d="M414.82,67.978c-2.188,1.344-4.797,2.016-7.826,2.016c-4.01,0-7.24-1.377-9.695-4.129s-3.684-6.354-3.684-10.803
		c0-4.68,1.383-8.511,4.145-11.494c2.762-2.981,6.309-4.474,10.645-4.474c2.244,0,4.42,0.461,6.529,1.381v2.992
		c-2.109-1.304-4.42-1.956-6.934-1.956c-3.451,0-6.252,1.242-8.4,3.726c-2.148,2.484-3.221,5.701-3.221,9.652
		c0,3.816,0.982,6.886,2.947,9.207c1.967,2.32,4.561,3.48,7.783,3.48c2.953,0,5.523-0.785,7.711-2.359V67.978z"/>
	<path d="M422.529,54.658c0,4.046,0.936,7.212,2.805,9.494c1.871,2.283,4.436,3.424,7.697,3.424c3.297,0,6.52-1.217,9.666-3.654
		v2.82c-3.051,2.168-6.455,3.252-10.213,3.252c-3.799,0-6.867-1.363-9.207-4.086s-3.51-6.568-3.51-11.537
		c0-4.297,1.223-7.917,3.668-10.861c2.445-2.943,5.625-4.416,9.537-4.416c3.664,0,6.473,1.285,8.43,3.855s2.934,6.08,2.934,10.529
		v1.18H422.529z M441.574,52.242c-0.115-3.396-0.93-6.032-2.445-7.912s-3.605-2.819-6.271-2.819c-2.762,0-5.049,0.926-6.861,2.776
		s-2.93,4.502-3.352,7.955H441.574z"/>
	<path d="M450.119,67.978v-3.193c0.998,0.863,2.205,1.545,3.625,2.043c1.42,0.5,2.646,0.748,3.684,0.748
		c4.621,0,6.934-1.889,6.934-5.668c0-1.303-0.51-2.416-1.525-3.336c-1.018-0.922-2.666-1.871-4.949-2.849
		c-2.818-1.227-4.799-2.498-5.939-3.812c-1.143-1.313-1.713-2.91-1.713-4.79c0-2.397,0.916-4.335,2.748-5.812
		s4.09-2.216,6.775-2.216c2.531,0,4.699,0.519,6.502,1.554v2.992c-2.188-1.419-4.449-2.129-6.789-2.129
		c-1.938,0-3.502,0.504-4.689,1.511c-1.189,1.007-1.785,2.315-1.785,3.927c0,1.4,0.375,2.536,1.123,3.409s2.396,1.875,4.947,3.007
		c3.068,1.381,5.18,2.661,6.33,3.84c1.15,1.18,1.727,2.749,1.727,4.704c0,2.342-0.879,4.273-2.633,5.797
		c-1.756,1.525-4.176,2.289-7.264,2.289C454.387,69.994,452.018,69.322,450.119,67.978z"/>
</g>
<g enable-background="new    ">
	<path d="M476.662,69.583v-8.402h2.209c0.66,0,1.186,0.178,1.576,0.533s0.586,0.826,0.586,1.412c0,0.488-0.13,0.912-0.39,1.27
		s-0.622,0.609-1.087,0.758v0.023c0.582,0.055,1.041,0.264,1.377,0.625s0.504,0.82,0.504,1.379c0,0.707-0.229,1.285-0.686,1.732
		s-1.068,0.67-1.834,0.67H476.662z M477.242,61.714v3.252h1.172c0.609,0,1.098-0.156,1.465-0.469s0.551-0.736,0.551-1.271
		c0-1.008-0.596-1.512-1.787-1.512H477.242z M477.242,65.494v3.563h1.559c0.66,0,1.165-0.158,1.515-0.475s0.524-0.766,0.524-1.348
		c0-1.16-0.787-1.74-2.361-1.74H477.242z"/>
	<path d="M484.537,70.808c-0.219,0.539-0.461,0.939-0.727,1.201s-0.607,0.393-1.025,0.393c-0.176,0-0.332-0.027-0.469-0.082v-0.539
		c0.141,0.055,0.305,0.082,0.492,0.082c0.48,0,0.859-0.332,1.137-0.996l0.557-1.33l-2.273-5.953h0.604l1.811,4.887
		c0.039,0.105,0.066,0.186,0.082,0.24c0.016,0.074,0.033,0.141,0.053,0.199h0.023l0.141-0.404l1.934-4.922h0.586L484.537,70.808z"/>
	<path d="M496.238,69.583l-3.58-4.02c-0.066-0.074-0.113-0.139-0.141-0.193h-0.023v4.213h-0.58v-8.402h0.58v3.961h0.023
		c0.047-0.082,0.098-0.15,0.152-0.205l3.398-3.756h0.756l-3.686,4.072l3.914,4.33H496.238z"/>
	<path d="M498.248,66.607c0,0.824,0.19,1.469,0.571,1.934s0.903,0.697,1.567,0.697c0.672,0,1.328-0.248,1.969-0.744v0.574
		c-0.621,0.441-1.314,0.662-2.08,0.662c-0.773,0-1.398-0.277-1.875-0.832s-0.715-1.338-0.715-2.35c0-0.875,0.249-1.611,0.747-2.211
		s1.146-0.9,1.942-0.9c0.746,0,1.318,0.262,1.717,0.785s0.598,1.238,0.598,2.145v0.24H498.248z M502.127,66.115
		c-0.023-0.691-0.189-1.229-0.498-1.611s-0.734-0.574-1.277-0.574c-0.563,0-1.028,0.189-1.397,0.566s-0.597,0.916-0.683,1.619
		H502.127z"/>
	<path d="M506.146,69.583h-0.492l-2.32-6h0.604l1.787,4.775c0.086,0.23,0.146,0.439,0.182,0.627h0.023
		c0.051-0.246,0.107-0.447,0.17-0.604l1.846-4.799h0.586L506.146,69.583z"/>
	<path d="M509.879,62.072c-0.117,0-0.221-0.043-0.311-0.129s-0.135-0.195-0.135-0.328c0-0.129,0.046-0.232,0.138-0.313
		s0.194-0.121,0.308-0.121c0.121,0,0.228,0.039,0.319,0.117s0.138,0.184,0.138,0.316c0,0.125-0.045,0.232-0.135,0.322
		S510.004,62.072,509.879,62.072z M509.615,69.583v-6h0.539v6H509.615z"/>
	<path d="M516.154,69.583v-3.492c0-1.441-0.52-2.162-1.559-2.162c-0.578,0-1.053,0.213-1.424,0.637s-0.557,0.947-0.557,1.572v3.445
		h-0.539v-6h0.539v1.09h0.023c0.438-0.824,1.121-1.236,2.051-1.236c0.648,0,1.145,0.217,1.488,0.648s0.516,1.047,0.516,1.848v3.65
		H516.154z"/>
	<path d="M518.27,71.037h-0.457l0.879-2.783h0.598L518.27,71.037z"/>
	<path d="M530.51,69.583l-5.004-6.791c-0.102-0.137-0.191-0.273-0.27-0.41l-0.076-0.117h-0.023c0.008,0.102,0.012,0.225,0.012,0.369
		v6.949h-0.58v-8.402h0.445l4.969,6.732c0.109,0.148,0.229,0.328,0.357,0.539h0.029c-0.02-0.273-0.029-0.508-0.029-0.703v-6.568
		h0.58v8.402H530.51z"/>
	<path d="M533.223,62.072c-0.117,0-0.221-0.043-0.311-0.129s-0.135-0.195-0.135-0.328c0-0.129,0.046-0.232,0.138-0.313
		s0.194-0.121,0.308-0.121c0.121,0,0.228,0.039,0.319,0.117s0.138,0.184,0.138,0.316c0,0.125-0.045,0.232-0.135,0.322
		S533.348,62.072,533.223,62.072z M532.959,69.583v-6h0.539v6H532.959z"/>
	<path d="M539.305,69.32c-0.445,0.273-0.977,0.41-1.594,0.41c-0.816,0-1.475-0.279-1.975-0.84s-0.75-1.295-0.75-2.201
		c0-0.953,0.281-1.732,0.844-2.34s1.285-0.912,2.168-0.912c0.457,0,0.9,0.094,1.33,0.281v0.609c-0.43-0.266-0.9-0.398-1.412-0.398
		c-0.703,0-1.273,0.254-1.711,0.76s-0.656,1.16-0.656,1.965c0,0.777,0.2,1.402,0.601,1.875s0.929,0.709,1.585,0.709
		c0.602,0,1.125-0.16,1.57-0.48V69.32z"/>
	<path d="M543.154,69.73c-0.875,0-1.567-0.287-2.077-0.863s-0.765-1.326-0.765-2.248c0-0.996,0.267-1.775,0.8-2.338
		s1.235-0.844,2.106-0.844c0.855,0,1.531,0.279,2.027,0.838s0.744,1.332,0.744,2.32c0,0.934-0.253,1.689-0.759,2.268
		S544.033,69.73,543.154,69.73z M543.195,63.929c-0.707,0-1.271,0.238-1.69,0.715s-0.63,1.139-0.63,1.986
		c0,0.785,0.205,1.416,0.615,1.893s0.971,0.715,1.682,0.715c0.723,0,1.279-0.234,1.67-0.703s0.586-1.119,0.586-1.951
		c0-0.855-0.194-1.512-0.583-1.969S543.906,63.929,543.195,63.929z"/>
	<path d="M547.479,69.583v-8.883h0.539v8.883H547.479z"/>
	<path d="M553.525,69.583v-1.201h-0.023c-0.191,0.41-0.47,0.738-0.835,0.982s-0.771,0.365-1.216,0.365
		c-0.57,0-1.021-0.16-1.354-0.48s-0.498-0.725-0.498-1.213c0-1.047,0.693-1.68,2.08-1.898l1.846-0.275
		c0-1.289-0.484-1.934-1.453-1.934c-0.66,0-1.303,0.266-1.928,0.797v-0.65c0.223-0.176,0.524-0.326,0.905-0.451
		s0.739-0.188,1.075-0.188c0.617,0,1.095,0.191,1.433,0.574s0.507,0.939,0.507,1.67v3.902H553.525z M551.873,66.595
		c-0.629,0.09-1.07,0.236-1.324,0.438s-0.381,0.527-0.381,0.98c0,0.355,0.118,0.648,0.354,0.879s0.565,0.346,0.987,0.346
		c0.578,0,1.059-0.213,1.441-0.641s0.574-0.98,0.574-1.656v-0.586L551.873,66.595z"/>
	<path d="M555.559,69.32v-0.65c0.203,0.176,0.449,0.314,0.738,0.416s0.539,0.152,0.75,0.152c0.941,0,1.412-0.385,1.412-1.154
		c0-0.266-0.104-0.492-0.311-0.68s-0.543-0.381-1.008-0.58c-0.574-0.25-0.978-0.508-1.21-0.775s-0.349-0.594-0.349-0.977
		c0-0.488,0.187-0.883,0.56-1.184s0.833-0.451,1.38-0.451c0.516,0,0.957,0.105,1.324,0.316v0.609
		c-0.445-0.289-0.906-0.434-1.383-0.434c-0.395,0-0.713,0.104-0.955,0.309s-0.363,0.471-0.363,0.799
		c0,0.285,0.076,0.518,0.229,0.695s0.488,0.381,1.008,0.611c0.625,0.281,1.055,0.543,1.289,0.783s0.352,0.559,0.352,0.957
		c0,0.477-0.179,0.871-0.536,1.182s-0.851,0.465-1.479,0.465C556.428,69.73,555.945,69.593,555.559,69.32z"/>
	<path d="M560.299,71.037h-0.457l0.879-2.783h0.598L560.299,71.037z"/>
	<path d="M572.539,69.583l-5.004-6.791c-0.102-0.137-0.191-0.273-0.27-0.41l-0.076-0.117h-0.023
		c0.008,0.102,0.012,0.225,0.012,0.369v6.949h-0.58v-8.402h0.445l4.969,6.732c0.109,0.148,0.229,0.328,0.357,0.539h0.029
		c-0.02-0.273-0.029-0.508-0.029-0.703v-6.568h0.58v8.402H572.539z"/>
	<path d="M577.396,69.73c-0.875,0-1.567-0.287-2.077-0.863s-0.765-1.326-0.765-2.248c0-0.996,0.267-1.775,0.8-2.338
		s1.235-0.844,2.106-0.844c0.855,0,1.531,0.279,2.027,0.838s0.744,1.332,0.744,2.32c0,0.934-0.253,1.689-0.759,2.268
		S578.275,69.73,577.396,69.73z M577.438,63.929c-0.707,0-1.271,0.238-1.69,0.715s-0.63,1.139-0.63,1.986
		c0,0.785,0.205,1.416,0.615,1.893s0.971,0.715,1.682,0.715c0.723,0,1.279-0.234,1.67-0.703s0.586-1.119,0.586-1.951
		c0-0.855-0.194-1.512-0.583-1.969S578.148,63.929,577.438,63.929z"/>
	<path d="M581.85,66.607c0,0.824,0.19,1.469,0.571,1.934s0.903,0.697,1.567,0.697c0.672,0,1.328-0.248,1.969-0.744v0.574
		c-0.621,0.441-1.314,0.662-2.08,0.662c-0.773,0-1.398-0.277-1.875-0.832s-0.715-1.338-0.715-2.35c0-0.875,0.249-1.611,0.747-2.211
		s1.146-0.9,1.942-0.9c0.746,0,1.318,0.262,1.717,0.785s0.598,1.238,0.598,2.145v0.24H581.85z M585.729,66.115
		c-0.023-0.691-0.189-1.229-0.498-1.611s-0.734-0.574-1.277-0.574c-0.563,0-1.028,0.189-1.397,0.566s-0.597,0.916-0.683,1.619
		H585.729z"/>
	<path d="M594.652,69.583v-1.201h-0.023c-0.191,0.41-0.47,0.738-0.835,0.982s-0.771,0.365-1.216,0.365
		c-0.57,0-1.021-0.16-1.354-0.48s-0.498-0.725-0.498-1.213c0-1.047,0.693-1.68,2.08-1.898l1.846-0.275
		c0-1.289-0.484-1.934-1.453-1.934c-0.66,0-1.303,0.266-1.928,0.797v-0.65c0.223-0.176,0.524-0.326,0.905-0.451
		s0.739-0.188,1.075-0.188c0.617,0,1.095,0.191,1.433,0.574s0.507,0.939,0.507,1.67v3.902H594.652z M593,66.595
		c-0.629,0.09-1.07,0.236-1.324,0.438s-0.381,0.527-0.381,0.98c0,0.355,0.118,0.648,0.354,0.879s0.565,0.346,0.987,0.346
		c0.578,0,1.059-0.213,1.441-0.641s0.574-0.98,0.574-1.656v-0.586L593,66.595z"/>
	<path d="M601.074,69.583v-3.492c0-1.441-0.52-2.162-1.559-2.162c-0.578,0-1.053,0.213-1.424,0.637s-0.557,0.947-0.557,1.572v3.445
		h-0.539v-6h0.539v1.09h0.023c0.438-0.824,1.121-1.236,2.051-1.236c0.648,0,1.145,0.217,1.488,0.648s0.516,1.047,0.516,1.848v3.65
		H601.074z"/>
	<path d="M607.678,69.583v-1.09h-0.023c-0.195,0.379-0.484,0.68-0.867,0.902s-0.814,0.334-1.295,0.334
		c-0.738,0-1.341-0.27-1.808-0.809s-0.7-1.283-0.7-2.232c0-0.969,0.255-1.752,0.765-2.352s1.171-0.9,1.983-0.9
		c0.898,0,1.539,0.369,1.922,1.107h0.023v-3.844h0.539v8.883H607.678z M607.678,65.933c0-0.559-0.177-1.031-0.53-1.42
		s-0.829-0.584-1.427-0.584c-0.629,0-1.148,0.242-1.559,0.725s-0.615,1.145-0.615,1.988c0,0.828,0.185,1.469,0.554,1.92
		s0.845,0.676,1.427,0.676c0.684,0,1.213-0.211,1.588-0.635s0.563-0.941,0.563-1.551V65.933z"/>
	<path d="M620.826,69.583v-5.965c0-0.145,0.021-0.557,0.064-1.236h-0.023c-0.121,0.316-0.223,0.561-0.305,0.732l-2.988,6.469h-0.188
		l-3-6.434c-0.098-0.207-0.189-0.471-0.275-0.791h-0.029c0.027,0.375,0.041,0.748,0.041,1.119v6.105h-0.58v-8.402h0.539l3.135,6.768
		c0.02,0.039,0.041,0.092,0.064,0.158s0.049,0.133,0.076,0.199c0.039,0.102,0.08,0.215,0.123,0.34h0.035l0.064-0.188
		c0.004-0.016,0.07-0.201,0.199-0.557l3.088-6.721h0.516v8.402H620.826z"/>
	<path d="M627.008,69.583v-1.201h-0.023c-0.191,0.41-0.47,0.738-0.835,0.982s-0.771,0.365-1.216,0.365
		c-0.57,0-1.021-0.16-1.354-0.48s-0.498-0.725-0.498-1.213c0-1.047,0.693-1.68,2.08-1.898l1.846-0.275
		c0-1.289-0.484-1.934-1.453-1.934c-0.66,0-1.303,0.266-1.928,0.797v-0.65c0.223-0.176,0.524-0.326,0.905-0.451
		s0.739-0.188,1.075-0.188c0.617,0,1.095,0.191,1.433,0.574s0.507,0.939,0.507,1.67v3.902H627.008z M625.355,66.595
		c-0.629,0.09-1.07,0.236-1.324,0.438s-0.381,0.527-0.381,0.98c0,0.355,0.118,0.648,0.354,0.879s0.565,0.346,0.987,0.346
		c0.578,0,1.059-0.213,1.441-0.641s0.574-0.98,0.574-1.656v-0.586L625.355,66.595z"/>
	<path d="M632.182,64.146c-0.18-0.129-0.391-0.193-0.633-0.193c-0.473,0-0.869,0.244-1.189,0.732s-0.48,1.182-0.48,2.08v2.818
		h-0.527v-6h0.527v1.33h0.023c0.137-0.457,0.354-0.813,0.65-1.066s0.641-0.381,1.031-0.381c0.223,0,0.422,0.035,0.598,0.105V64.146z
		"/>
	<path d="M637.197,69.32c-0.445,0.273-0.977,0.41-1.594,0.41c-0.816,0-1.475-0.279-1.975-0.84s-0.75-1.295-0.75-2.201
		c0-0.953,0.281-1.732,0.844-2.34s1.285-0.912,2.168-0.912c0.457,0,0.9,0.094,1.33,0.281v0.609c-0.43-0.266-0.9-0.398-1.412-0.398
		c-0.703,0-1.273,0.254-1.711,0.76s-0.656,1.16-0.656,1.965c0,0.777,0.2,1.402,0.601,1.875s0.929,0.709,1.585,0.709
		c0.602,0,1.125-0.16,1.57-0.48V69.32z"/>
	<path d="M641.047,69.73c-0.875,0-1.567-0.287-2.077-0.863s-0.765-1.326-0.765-2.248c0-0.996,0.267-1.775,0.8-2.338
		s1.235-0.844,2.106-0.844c0.855,0,1.531,0.279,2.027,0.838s0.744,1.332,0.744,2.32c0,0.934-0.253,1.689-0.759,2.268
		S641.926,69.73,641.047,69.73z M641.088,63.929c-0.707,0-1.271,0.238-1.69,0.715s-0.63,1.139-0.63,1.986
		c0,0.785,0.205,1.416,0.615,1.893s0.971,0.715,1.682,0.715c0.723,0,1.279-0.234,1.67-0.703s0.586-1.119,0.586-1.951
		c0-0.855-0.194-1.512-0.583-1.969S641.799,63.929,641.088,63.929z"/>
	<path d="M645.061,69.32v-0.65c0.203,0.176,0.449,0.314,0.738,0.416s0.539,0.152,0.75,0.152c0.941,0,1.412-0.385,1.412-1.154
		c0-0.266-0.104-0.492-0.311-0.68s-0.543-0.381-1.008-0.58c-0.574-0.25-0.978-0.508-1.21-0.775s-0.349-0.594-0.349-0.977
		c0-0.488,0.187-0.883,0.56-1.184s0.833-0.451,1.38-0.451c0.516,0,0.957,0.105,1.324,0.316v0.609
		c-0.445-0.289-0.906-0.434-1.383-0.434c-0.395,0-0.713,0.104-0.955,0.309s-0.363,0.471-0.363,0.799
		c0,0.285,0.076,0.518,0.229,0.695s0.488,0.381,1.008,0.611c0.625,0.281,1.055,0.543,1.289,0.783s0.352,0.559,0.352,0.957
		c0,0.477-0.179,0.871-0.536,1.182s-0.851,0.465-1.479,0.465C645.93,69.73,645.447,69.593,645.061,69.32z"/>
</g>
</svg>
